<svg width="640" height="180" viewBox="0 0 640 180" fill="none" xmlns="http://www.w3.org/2000/svg" role="img" aria-labelledby="title desc">
  <title id="title">pg-slide-harvester logo</title>
  <desc id="desc">A PostgreSQL themed slide archive logo.</desc>
  <rect width="640" height="180" rx="24" fill="#F8FAFC"/>
  <rect x="32" y="28" width="124" height="124" rx="22" fill="#336791"/>
  <path d="M67 67C67 54.85 76.85 45 89 45H122C134.15 45 144 54.85 144 67V102C144 114.15 134.15 124 122 124H89C76.85 124 67 114.15 67 102V67Z" fill="white" fill-opacity="0.16"/>
  <path d="M82 72H132" stroke="white" stroke-width="8" stroke-linecap="round"/>
  <path d="M82 92H120" stroke="white" stroke-width="8" stroke-linecap="round"/>
  <path d="M82 112H109" stroke="white" stroke-width="8" stroke-linecap="round"/>
  <path d="M128 48C139.5 55.5 146 68 146 84C146 105.5 129.5 125 105 125C82.5 125 64 108.5 64 84C64 62.5 79.5 45 101 45" stroke="white" stroke-width="7" stroke-linecap="round"/>
  <circle cx="131" cy="47" r="7" fill="white"/>
  <path d="M199 58H575" stroke="#CBD5E1" stroke-width="2"/>
  <path d="M199 91H520" stroke="#CBD5E1" stroke-width="2"/>
  <path d="M199 124H468" stroke="#CBD5E1" stroke-width="2"/>
  <rect x="191" y="43" width="92" height="30" rx="8" fill="#E0F2FE"/>
  <text x="207" y="64" fill="#0369A1" font-family="Inter, ui-sans-serif, system-ui, -apple-system, BlinkMacSystemFont, 'Segoe UI', sans-serif" font-size="16" font-weight="700">slides</text>
  <rect x="301" y="76" width="112" height="30" rx="8" fill="#DCFCE7"/>
  <text x="316" y="97" fill="#166534" font-family="Inter, ui-sans-serif, system-ui, -apple-system, BlinkMacSystemFont, 'Segoe UI', sans-serif" font-size="16" font-weight="700">optimizer</text>
  <rect x="431" y="109" width="96" height="30" rx="8" fill="#FEF3C7"/>
  <text x="446" y="130" fill="#92400E" font-family="Inter, ui-sans-serif, system-ui, -apple-system, BlinkMacSystemFont, 'Segoe UI', sans-serif" font-size="16" font-weight="700">archive</text>
</svg>
